<svg width="64" height="64" viewBox="0 0 64 64" xmlns="http://www.w3.org/2000/svg">
  <!-- Windows-Style Ordner für Optionen -->
  <defs>
    <linearGradient id="folderGradient" x1="0%" y1="0%" x2="0%" y2="100%">
      <stop offset="0%" style="stop-color:#8A2BE2;stop-opacity:1" />
      <stop offset="100%" style="stop-color:#4B0082;stop-opacity:1" />
    </linearGradient>
    <linearGradient id="tabGradient" x1="0%" y1="0%" x2="0%" y2="100%">
      <stop offset="0%" style="stop-color:#9370DB;stop-opacity:1" />
      <stop offset="100%" style="stop-color:#8A2BE2;stop-opacity:1" />
    </linearGradient>
  </defs>
  
  <!-- Ordner-Körper -->
  <rect x="8" y="20" width="48" height="36" rx="2" ry="2" 
        fill="url(#folderGradient)" 
        stroke="#2E0854" stroke-width="1"/>
  
  <!-- Ordner-Tab -->
  <rect x="8" y="14" width="20" height="8" rx="2" ry="2" 
        fill="url(#tabGradient)" 
        stroke="#2E0854" stroke-width="1"/>
  
  <!-- Zahnrad-Symbol (Optionen) -->
  <g transform="translate(32,38)">
    <!-- Äußeres Zahnrad -->
    <circle cx="0" cy="0" r="10" fill="none" stroke="white" stroke-width="2"/>
    
    <!-- Zahnrad-Zähne -->
    <g stroke="white" stroke-width="1.5">
      <line x1="0" y1="-12" x2="0" y2="-10"/>
      <line x1="8.5" y1="-8.5" x2="7.1" y2="-7.1"/>
      <line x1="12" y1="0" x2="10" y2="0"/>
      <line x1="8.5" y1="8.5" x2="7.1" y2="7.1"/>
      <line x1="0" y1="12" x2="0" y2="10"/>
      <line x1="-8.5" y1="8.5" x2="-7.1" y2="7.1"/>
      <line x1="-12" y1="0" x2="-10" y2="0"/>
      <line x1="-8.5" y1="-8.5" x2="-7.1" y2="-7.1"/>
    </g>
    
    <!-- Inneres Loch -->
    <circle cx="0" cy="0" r="4" fill="none" stroke="white" stroke-width="2"/>
  </g>
  
  <!-- Highlight-Effekt -->
  <rect x="8" y="20" width="48" height="4" rx="2" ry="2" 
        fill="rgba(255,255,255,0.3)"/>
</svg>