<svg width="64" height="64" viewBox="0 0 64 64" xmlns="http://www.w3.org/2000/svg">
  <!-- Windows-Style Ordner für Statistik -->
  <defs>
    <linearGradient id="folderGradientStats" x1="0%" y1="0%" x2="0%" y2="100%">
      <stop offset="0%" style="stop-color:#FF6347;stop-opacity:1" />
      <stop offset="100%" style="stop-color:#DC143C;stop-opacity:1" />
    </linearGradient>
    <linearGradient id="tabGradientStats" x1="0%" y1="0%" x2="0%" y2="100%">
      <stop offset="0%" style="stop-color:#FFA07A;stop-opacity:1" />
      <stop offset="100%" style="stop-color:#FF6347;stop-opacity:1" />
    </linearGradient>
  </defs>
  
  <!-- Ordner-Körper -->
  <rect x="8" y="20" width="48" height="36" rx="2" ry="2" 
        fill="url(#folderGradientStats)" 
        stroke="#8B0000" stroke-width="1"/>
  
  <!-- Ordner-Tab -->
  <rect x="8" y="14" width="20" height="8" rx="2" ry="2" 
        fill="url(#tabGradientStats)" 
        stroke="#8B0000" stroke-width="1"/>
  
  <!-- Balkendiagramm -->
  <rect x="18" y="42" width="3" height="8" fill="white"/>
  <rect x="22" y="38" width="3" height="12" fill="white"/>
  <rect x="26" y="35" width="3" height="15" fill="white"/>
  <rect x="30" y="40" width="3" height="10" fill="white"/>
  <rect x="34" y="32" width="3" height="18" fill="white"/>
  
  <!-- Koordinatenachsen -->
  <line x1="16" y1="50" x2="46" y2="50" stroke="white" stroke-width="1"/>
  <line x1="16" y1="30" x2="16" y2="50" stroke="white" stroke-width="1"/>
  
  <!-- Kreisdiagramm (rechts) -->
  <circle cx="44" cy="36" r="6" fill="none" stroke="white" stroke-width="1"/>
  <path d="M 44 30 A 6 6 0 0 1 48 40 L 44 36 Z" fill="white" opacity="0.7"/>
  <path d="M 44 36 L 48 40 A 6 6 0 0 1 40 40 Z" fill="white" opacity="0.5"/>
  
  <!-- Trend-Linie -->
  <polyline points="18,45 22,42 26,38 30,41 34,35 38,33" 
            fill="none" stroke="#FFD700" stroke-width="2"/>
  
  <!-- Datenpunkte -->
  <circle cx="18" cy="45" r="1" fill="#FFD700"/>
  <circle cx="22" cy="42" r="1" fill="#FFD700"/>
  <circle cx="26" cy="38" r="1" fill="#FFD700"/>
  <circle cx="30" cy="41" r="1" fill="#FFD700"/>
  <circle cx="34" cy="35" r="1" fill="#FFD700"/>
  <circle cx="38" cy="33" r="1" fill="#FFD700"/>
  
  <!-- Highlight-Effekt -->
  <rect x="8" y="20" width="48" height="4" rx="2" ry="2" 
        fill="rgba(255,255,255,0.3)"/>
</svg>