<?xml version="1.0" encoding="UTF-8"?>
<svg width="400" height="500" viewBox="0 0 400 500" xmlns="http://www.w3.org/2000/svg">
  <!-- Pokal Base -->
  <rect x="120" y="420" width="160" height="60" fill="#8B4513" stroke="#5D2F0A" stroke-width="3"/>
  
  <!-- Pokal Stem -->
  <rect x="170" y="350" width="60" height="80" fill="#FFD700" stroke="#DAA520" stroke-width="3"/>
  
  <!-- Main Cup Body -->
  <path d="M 80 150 Q 80 120 100 120 L 300 120 Q 320 120 320 150 L 320 300 Q 320 330 300 350 L 100 350 Q 80 330 80 300 Z" 
        fill="#FFD700" stroke="#DAA520" stroke-width="4"/>
  
  <!-- Cup Handles -->
  <ellipse cx="50" cy="200" rx="25" ry="40" fill="none" stroke="#DAA520" stroke-width="6"/>
  <ellipse cx="350" cy="200" rx="25" ry="40" fill="none" stroke="#DAA520" stroke-width="6"/>
  
  <!-- Cup Decoration Lines -->
  <line x1="100" y1="140" x2="300" y2="140" stroke="#DAA520" stroke-width="2"/>
  <line x1="100" y1="160" x2="300" y2="160" stroke="#DAA520" stroke-width="2"/>
  <line x1="100" y1="310" x2="300" y2="310" stroke="#DAA520" stroke-width="2"/>
  <line x1="100" y1="330" x2="300" y2="330" stroke="#DAA520" stroke-width="2"/>
  
  <!-- Victory Wreath -->
  <ellipse cx="200" cy="80" rx="80" ry="30" fill="none" stroke="#228B22" stroke-width="6"/>
  <circle cx="130" cy="70" r="8" fill="#228B22"/>
  <circle cx="150" cy="60" r="6" fill="#228B22"/>
  <circle cx="170" cy="55" r="7" fill="#228B22"/>
  <circle cx="200" cy="50" r="8" fill="#228B22"/>
  <circle cx="230" cy="55" r="7" fill="#228B22"/>
  <circle cx="250" cy="60" r="6" fill="#228B22"/>
  <circle cx="270" cy="70" r="8" fill="#228B22"/>
  
  <!-- Crown on top -->
  <polygon points="180,30 200,10 220,30 210,40 190,40" fill="#FFD700" stroke="#DAA520" stroke-width="2"/>
  
  <!-- Sparkle effects -->
  <g fill="#FFFFFF" opacity="0.7">
    <circle cx="140" cy="180" r="3"/>
    <circle cx="260" cy="200" r="4"/>
    <circle cx="180" cy="250" r="3"/>
    <circle cx="240" cy="280" r="3"/>
    <circle cx="160" cy="300" r="4"/>
  </g>
</svg>